# AST/ASF file generated using VICON BodyLanguage
# -----------------------------------------------
:version 1.10
:name VICON
:units
  mass 1.0
  length 0.45
  angle deg
:documentation
   .ast/.asf automatically generated from VICON data using
   VICON BodyBuilder and BodyLanguage model FoxedUp or BRILLIANT.MOD
:root
   order TX TY TZ RX RY RZ
   axis XYZ
   position 0 0 0  
   orientation 0 0 0 
:bonedata
  begin
     id 1 
     name lhipjoint
     direction 0.522423 -0.726805 0.445902 
     length 2.25074 
     axis 0 0 0  XYZ
  end
  begin
     id 2 
     name lfemur
     direction 0.34202 -0.939693 0  
     length 6.54609  
     axis 0 0 20  XYZ
    dof rx ry rz
    limits (-160.0 20.0)
           (-70.0 70.0)
           (-60.0 70.0)
  end
  begin
     id 3 
     name ltibia
     direction 0.34202 -0.939693 0   
     length 7.7528   
     axis 0 0 20   XYZ
    dof rx
    limits (-10.0 170.0)
  end
  begin
     id 4 
     name lfoot
     direction 0.143696 -0.394801 0.90746   
     length 1.73269   
     axis -90 7.62852e-016 20   XYZ
    dof rx rz
    limits (-45.0 90.0)
           (-70.0 20.0)
  end
  begin
     id 5 
     name ltoes
     direction 1.53633e-011 -4.21912e-011 1   
     length 0.858383   
     axis -90 7.62852e-016 20   XYZ
    dof rx
    limits (-90.0 20.0)
  end
  begin
     id 6 
     name rhipjoint
     direction -0.515943 -0.73016 0.447961   
     length 2.2404  
     axis 0 0 0  XYZ 
  end
  begin
     id 7 
     name rfemur
     direction -0.34202 -0.939693 0   
     length 6.84377   
     axis 0 0 -20   XYZ
    dof rx ry rz
    limits (-160.0 20.0)
           (-70.0 70.0)
           (-70.0 60.0)
  end
  begin
     id 8 
     name rtibia
     direction -0.34202 -0.939693 0   
     length 7.57596   
     axis 0 0 -20   XYZ
    dof rx
    limits (-10.0 170.0)
 end
 begin
     id 9 
     name rfoot
     direction -0.0999372 -0.274575 0.956358   
     length 1.78783  
     axis -90 -7.62852e-016 -20   XYZ
    dof rx rz
    limits (-45.0 90.0)
           (-20.0 70.0)
  end
  begin
     id 10 
     name rtoes
     direction -1.53535e-011 -4.21895e-011 1   
     length 0.898614   
     axis -90 -7.62852e-016 -20   XYZ
    dof rx
    limits (-90.0 20.0)
  end
  begin
     id 11 
     name lowerback
     direction -0.011775 0.996164 -0.0867116   
     length 1.91499   
     axis 0 0 0   XYZ
    dof rx ry rz
    limits (-20.0 45.0)
           (-30.0 30.0)
           (-30.0 30.0)
  end
  begin
     id 12 
     name upperback
     direction -0.00189771 0.999673 -0.0254833   
     length 1.92213   
     axis 0 0 0   XYZ
    dof rx ry rz
    limits (-20.0 45.0)
           (-30.0 30.0)
           (-30.0 30.0)
  end
  begin
     id 13 
     name thorax
     direction 0.00335995 0.999878 0.0152401   
     length 1.93138   
     axis 0 0 0   XYZ
    dof rx ry rz
    limits (-20.0 45.0)
           (-30.0 30.0)
           (-30.0 30.0)
  end
  begin
     id 14 
     name lowerneck
     direction 0.00233191 0.998509 0.0545404   
     length 1.59408   
     axis 0 0 0   XYZ
    dof rx ry rz
    limits (-20.0 45.0)
           (-30.0 30.0)
           (-30.0 30.0)
  end
  begin
     id 15 
     name upperneck
     direction 0.07881 0.9956 -0.0506934   
     length 1.59344   
     axis 0 0 0   XYZ
    dof rx ry rz
    limits (-20.0 45.0)
           (-30.0 30.0)
           (-30.0 30.0)
  end
  begin
     id 16
     name head
     direction 0.0261681 0.999378 -0.0236299  
     length 1.60935  
     axis 0 0 0   XYZ
    dof rx ry rz
    limits (-20.0 45.0)
           (-30.0 30.0)
           (-30.0 30.0)
  end
  begin
     id 17 
     name lclavicle
     direction 0.96643 0.252035 0.0499195  
     length 3.82153  
     axis 0 0 0   XYZ
    dof ry rz
    limits (-20.0 10.0)
           (0.0 20.0)
  end
  begin
     id 18 
     name lhumerus
     direction 1 -4.48967e-011 -2.01614e-018   
     length 4.87796   
     axis 180 -30 -90   XYZ
    dof rx ry rz
    limits (-60.0 90.0)
           (-90.0 90.0)
           (-90.0 90.0)
  end
  begin
     id 19
     name lradius
     direction 1 -4.48958e-011 3.1409e-027   
     length 3.23169   
     axis 180 -30 -90   XYZ
    dof rx
    limits (-10.0 170.0)
  end
  begin
     id 20
     name lwrist
     direction 1 -4.48924e-011 1.0365e-027   
     length 1.61584   
     axis -2.56395e-016 90 90   XYZ
    dof ry
    limits (-180.0 0.0)
 end
  begin
     id 21 
     name lhand
     direction 1 -4.49055e-011 2.09488e-027   
     length 0.731324   
     axis -1.32723e-015 90 90   XYZ
    dof rx rz
    limits (-90.0 90.0)
           (-45.0 45.0)
  end
  begin
     id 22 
     name lfingers
     direction 1 -4.48935e-011 4.14981e-027   
     length 0.589612   
     axis -2.6545e-015 90 90   XYZ
    dof rx
    limits (0.0 90.0)
  end
  begin
     id 23
     name lthumb
     direction 0.707107 -6.35097e-011 0.707107   
     length 0.846569   
     axis -90 45 5.05613e-014   XYZ
    dof rx rz
    limits (-45.0 45.0)
           (-45.0 45.0)
  end
  begin
     id 24 
     name rclavicle
     direction -0.979337 0.201016 0.0221522   
     length 3.73827  
     axis 0 0 0   XYZ 
    dof ry rz
    limits (-10.0 20.0)
           (-20.0 0.0)
  end
  begin
     id 25 
     name rhumerus
     direction -1 -4.48971e-011 1.65907e-027  
     length 4.9143   
     axis 180 30 90   XYZ
    dof rx ry rz
    limits (-90.0 60.0)
           (-90.0 90.0)
           (-90.0 90.0)
  end
  begin
     id 26 
     name rradius
     direction -1 -4.4894e-011 2.17871e-028   
     length 3.29093   
     axis 180 30 90   XYZ
    dof rx
    limits (-10.0 170.0)
  end
  begin
     id 27 
     name rwrist
     direction -1 -4.48971e-011 1.04038e-027   
     length 1.64546   
     axis -2.56395e-016 -90 -90   XYZ
    dof ry
    limits (-180.0 0.0)
  end
  begin
     id 28
     name rhand
     direction -1 -4.49017e-011 2.08843e-027   
     length 0.54512   
     axis -1.32723e-015 -90 -90   XYZ
    dof rx rz
    limits (-90.0 90.0)
           (-45.0 45.0)
  end
  begin
     id 29
     name rfingers
     direction -1 -4.48918e-011 4.1439e-027   
     length 0.43949   
     axis -2.6545e-015 -90 -90   XYZ
    dof rx
    limits (0.0 90.0)
  end
  begin
     id 30
     name rthumb
     direction -0.707107 -6.35065e-011 0.707107   
     length 0.631022   
     axis -90 -45 -5.05613e-014   XYZ
    dof rx rz
    limits (-45.0 45.0)
           (-45.0 45.0)
  end
:hierarchy
  begin
    root lhipjoint rhipjoint lowerback
    lhipjoint lfemur
    lfemur ltibia
    ltibia lfoot
    lfoot ltoes
    rhipjoint rfemur
    rfemur rtibia
    rtibia rfoot
    rfoot rtoes
    lowerback upperback
    upperback thorax
    thorax lowerneck lclavicle rclavicle
    lowerneck upperneck
    upperneck head
    lclavicle lhumerus
    lhumerus lradius
    lradius lwrist
    lwrist lhand lthumb
    lhand lfingers
    rclavicle rhumerus
    rhumerus rradius
    rradius rwrist
    rwrist rhand rthumb
    rhand rfingers
  end

#!OML:ASF H:\BreakDance\Project 1\Capture day 1\Session 1\Male.ASF
:FULLY-SPECIFIED
:DEGREES
1
root 10.6057 15.897 -0.562742 -99.6689 -88.2036 96.3056
lowerback -6.99926 -0.727769 -2.83654
upperback 3.61504 -0.632361 -1.07348
thorax 7.75662 -0.435587 0.375787
lowerneck -0.416661 0.969573 -1.46544
upperneck 19.3071 0.212395 3.72614
head 5.8807 0.0230455 1.41109
rclavicle -1.13059e-015 -1.31198e-014
rhumerus -26.9414 17.0746 -91.6111
rradius 45.3247
rwrist 15.2125
rhand -18.4339 -37.7301
rfingers 7.12502
rthumb 7.85155 -67.5643
lclavicle -1.13059e-015 -1.31198e-014
lhumerus -30.4258 9.3718 85.4916
lradius 52.8475
lwrist -33.0529
lhand -16.8211 -23.5579
lfingers 7.12502
lthumb 9.40794 6.21217
rfemur -9.28421 2.09692 7.44659
rtibia 39.1833
rfoot -33.605 -9.49778
rtoes 26.4618
lfemur -12.2424 0.42042 -10.4509
ltibia 40.1503
lfoot -27.235 21.5711
ltoes -34.5911
2
root 10.6074 15.8969 -0.565733 -101.408 -88.2295 98.0526
lowerback -6.99255 -0.654123 -2.78443
upperback 3.67714 -0.535733 -1.12229
thorax 7.81539 -0.385836 0.307629
lowerneck -0.599884 0.979248 -1.22006
upperneck 19.3472 0.214537 3.71972
head 5.92592 0.0444164 1.36898
rclavicle -8.7838e-015 -1.74931e-014
rhumerus -26.7918 16.8801 -91.6286
rradius 45.3046
rwrist 15.2556
rhand -18.4502 -37.6478
rfingers 7.12502
rthumb 7.83583 -67.4826
lclavicle -8.7838e-015 -1.74931e-014
lhumerus -30.1073 9.24077 85.3921
lradius 52.7507
lwrist -32.7174
lhand -15.7703 -24.1363
lfingers 7.12502
lthumb 10.4217 5.58536
rfemur -9.32829 2.36865 7.55028
rtibia 39.2046
rfoot -33.4042 -9.49539
rtoes 29.735
lfemur -12.2688 0.454662 -10.4226
ltibia 40.1399
lfoot -26.9136 21.7893
ltoes -35.5017
3
root 10.6065 15.8976 -0.567208 -103.213 -88.2654 99.8784
lowerback -6.91317 -0.592608 -2.72219
upperback 3.61505 -0.462197 -1.1426
thorax 7.69944 -0.344316 0.263134
lowerneck -0.576898 0.974125 -1.18999
upperneck 19.438 0.186447 3.77921
head 5.95132 0.0349109 1.38173
rclavicle 2.48481e-016 2.98177e-015
rhumerus -26.9094 16.6666 -91.6584
rradius 45.3145
rwrist 15.4799
rhand -18.5712 -37.3256
rfingers 7.12502
rthumb 7.71908 -67.1647
lclavicle 2.48481e-016 2.98177e-015
lhumerus -30.2575 9.15114 85.3063
lradius 52.9081
lwrist -32.3871
lhand -14.8232 -24.5256
lfingers 7.12502
lthumb 11.3352 5.14809
rfemur -9.35933 2.44337 7.61554
rtibia 39.1947
rfoot -33.2662 -9.47496
rtoes 30.9257
lfemur -12.2891 0.487194 -10.3732
ltibia 40.1483
lfoot -26.871 21.9743
ltoes -36.1179
4
root 10.6068 15.8994 -0.570798 -104.985 -88.3457 101.706
lowerback -6.87648 -0.63142 -2.76649
upperback 3.57557 -0.51742 -1.04585
thorax 7.63865 -0.374917 0.383287
lowerneck -0.58642 1.00301 -1.4244
upperneck 19.5103 0.223331 3.85302
head 5.97325 0.0404892 1.44703
rclavicle 5.82066e-015 1.98785e-015
rhumerus -26.9412 16.8646 -91.6279
rradius 45.3437
rwrist 15.588
rhand -18.4958 -37.3318
rfingers 7.12502
rthumb 7.79179 -67.1682
lclavicle 5.82066e-015 1.98785e-015
lhumerus -30.3783 9.45525 85.2401
lradius 53.1743
lwrist -31.6735
lhand -13.7338 -25.0725
lfingers 7.12502
lthumb 12.3857 4.54062
rfemur -9.42691 2.59492 7.75714
rtibia 39.1908
rfoot -33.4163 -9.54684
rtoes 30.6413
lfemur -12.3531 0.48232 -10.2624
ltibia 40.1527
lfoot -26.9028 21.993
ltoes -36.1868
5
root 10.6059 15.9001 -0.573616 -107.018 -88.3933 103.77
lowerback -6.8638 -0.625684 -2.77101
upperback 3.5683 -0.511926 -1.01144
thorax 7.62369 -0.373066 0.423002
lowerneck -0.628964 1.01603 -1.49901
upperneck 19.5619 0.235451 3.89983
head 5.99593 0.0444888 1.47564
rclavicle 8.47941e-015 1.70955e-014
rhumerus -26.9361 16.8914 -91.6275
rradius 45.3618
rwrist 15.6751
rhand -18.4744 -37.2818
rfingers 7.12502
rthumb 7.81249 -67.1175
lclavicle 8.47941e-015 1.70955e-014
lhumerus -30.3958 9.59121 85.1685
lradius 53.2928
lwrist -31.3463
lhand -12.9632 -25.514
lfingers 7.12502
lthumb 13.1287 4.05269
rfemur -9.46704 2.724 7.85638
rtibia 39.1867
rfoot -33.435 -9.5775
rtoes 31.097
lfemur -12.3835 0.515041 -10.1876
ltibia 40.1572
lfoot -26.8617 22.06
ltoes -36.389
6
root 10.6039 15.9006 -0.576452 -109.115 -88.4298 105.897
lowerback -6.87835 -0.622818 -2.78476
upperback 3.569 -0.507906 -0.981621
thorax 7.63324 -0.372605 0.46246
lowerneck -0.663178 1.02322 -1.55099
upperneck 19.5953 0.245387 3.91203
head 6.01175 0.04676 1.4892
rclavicle 3.6713e-015 1.92821e-014
rhumerus -26.9225 16.928 -91.6357
rradius 45.3832
rwrist 15.7173
rhand -18.4305 -37.2872
rfingers 7.12502
rthumb 7.85487 -67.1213
lclavicle 3.6713e-015 1.92821e-014
lhumerus -30.4139 9.72854 85.1005
lradius 53.3864
lwrist -31.179
lhand -12.4516 -25.8986
lfingers 7.12502
lthumb 13.6218 3.63566
rfemur -9.50547 2.83072 7.9399
rtibia 39.1907
rfoot -33.4789 -9.60479
rtoes 31.239
lfemur -12.4025 0.556303 -10.1201
ltibia 40.1551
lfoot -26.8402 22.0984
ltoes -36.4649
7
root 10.6012 15.9007 -0.579687 -111.115 -88.4426 107.93
lowerback -6.92412 -0.616463 -2.82005
upperback 3.58148 -0.494928 -0.964362
thorax 7.6735 -0.369002 0.501518
lowerneck -0.699483 1.02208 -1.54598
upperneck 19.6094 0.250228 3.87616
head 6.02252 0.0476738 1.47751
rclavicle -1.64184e-014 -1.66979e-014
rhumerus -26.8897 16.9533 -91.6519
rradius 45.4048
rwrist 15.7015
rhand -18.3628 -37.3487
rfingers 7.12502
rthumb 7.92018 -67.1803
lclavicle -1.64184e-014 -1.66979e-014
lhumerus -30.4073 9.83536 85.0388
lradius 53.4399
lwrist -31.1695
lhand -12.1946 -26.2255
lfingers 7.12502
lthumb 13.8694 3.29203
rfemur -9.55016 2.93687 7.99865
rtibia 39.2083
rfoot -33.5397 -9.62989
rtoes 31.298
lfemur -12.4138 0.604917 -10.0746
ltibia 40.1434
lfoot -26.817 22.1206
ltoes -36.4756
8
root 10.5981 15.9009 -0.583162 -112.806 -88.4157 109.655
lowerback -6.98744 -0.602122 -2.88576
upperback 3.5966 -0.466246 -0.966256
thorax 7.72652 -0.359003 0.539427
lowerneck -0.725005 1.01323 -1.48932
upperneck 19.6079 0.24748 3.80784
head 6.02716 0.0463312 1.44624
rclavicle -1.45982e-015 3.97569e-016
rhumerus -26.8551 16.9485 -91.6769
rradius 45.4254
rwrist 15.6429
rhand -18.2925 -37.4275
rfingers 7.12502
rthumb 7.98803 -67.2566
lclavicle -1.45982e-015 3.97569e-016
lhumerus -30.3937 9.89538 84.9839
lradius 53.4654
lwrist -31.2846
lhand -12.1317 -26.4881
lfingers 7.12502
lthumb 13.9301 3.0253
rfemur -9.60146 3.03941 8.01266
rtibia 39.2349
rfoot -33.6005 -9.64228
rtoes 31.3785
lfemur -12.4165 0.65405 -10.0715
ltibia 40.1236
lfoot -26.8082 22.1334
ltoes -36.434
9
root 10.5951 15.9011 -0.586807 -114.179 -88.3534 111.063
lowerback -7.04866 -0.57955 -2.97846
upperback 3.60194 -0.422991 -0.982726
thorax 7.76754 -0.34272 0.579308
lowerneck -0.707524 0.999702 -1.39987
upperneck 19.5824 0.238807 3.7249
head 6.01718 0.0428002 1.40413
rclavicle -4.79568e-015 -4.57205e-015
rhumerus -26.8423 16.9127 -91.7083
rradius 45.4469
rwrist 15.5722
rhand -18.238 -37.4842
rfingers 7.12502
rthumb 8.04065 -67.3112
lclavicle -4.79568e-015 -4.57205e-015
lhumerus -30.4011 9.90672 84.9357
lradius 53.4822
lwrist -31.4763
lhand -12.2005 -26.6635
lfingers 7.12502
lthumb 13.8637 2.85438
rfemur -9.6597 3.13872 7.98714
rtibia 39.2672
rfoot -33.6573 -9.64225
rtoes 31.4917
lfemur -12.4133 0.70126 -10.1061
ltibia 40.0985
lfoot -26.8245 22.1393
ltoes -36.3576
